<svg width="1440" height="771" viewBox="0 0 1440 771" fill="none" xmlns="http://www.w3.org/2000/svg">
<rect width="1440" height="771" fill="#24053E"/>
<path fill-rule="evenodd" clip-rule="evenodd" d="M226.923 85.42V80.076L228.843 77.964L233.291 85.42H238.731L232.427 74.988L238.763 67.948H232.843L226.923 74.252V61.196H222.123V85.42H226.923ZM203.204 84.62C201.796 85.4094 200.228 85.804 198.5 85.804C196.772 85.804 195.198 85.4094 193.78 84.62C192.361 83.8307 191.23 82.748 190.388 81.372C189.545 79.996 189.124 78.4334 189.124 76.684C189.124 74.9134 189.545 73.3454 190.388 71.98C191.23 70.6147 192.361 69.5374 193.78 68.748C195.198 67.9587 196.772 67.564 198.5 67.564C200.228 67.564 201.796 67.9587 203.204 68.748C204.612 69.5374 205.737 70.6147 206.58 71.98C207.422 73.3454 207.844 74.9134 207.844 76.684C207.844 78.4334 207.422 79.996 206.58 81.372C205.737 82.748 204.612 83.8307 203.204 84.62ZM174.24 74.22L170.176 85.42H166.016L160 67.948H164.96L168.352 78.092L172.16 67.948H176.32L180.096 78.092L183.488 67.948H188.48L182.432 85.42H178.272L174.24 74.22ZM198.5 81.484C197.198 81.484 196.137 81.036 195.316 80.14C194.494 79.244 194.084 78.092 194.084 76.684C194.084 75.2974 194.494 74.1507 195.316 73.244C196.137 72.3374 197.198 71.884 198.5 71.884C199.801 71.884 200.857 72.3374 201.668 73.244C202.478 74.1507 202.884 75.2974 202.884 76.684C202.884 78.092 202.478 79.244 201.668 80.14C200.857 81.036 199.801 81.484 198.5 81.484ZM215.015 76.012V85.42H210.215V67.948H214.695V70.572C215.143 69.484 215.778 68.7427 216.599 68.348C217.42 67.9534 218.364 67.756 219.431 67.756H220.455V71.916H218.951C217.778 71.916 216.828 72.2734 216.103 72.988C215.378 73.7027 215.015 74.7107 215.015 76.012ZM243.246 61.58V65.1H241.326V61.58H243.246ZM243.246 85.42V68.428H241.326V85.42H243.246ZM254.962 85.58C254.663 85.6014 254.428 85.612 254.258 85.612C252.828 85.612 251.735 85.212 250.978 84.412C250.22 83.612 249.842 82.444 249.842 80.908V70.252H246.642V68.428H247.858C248.476 68.428 248.962 68.236 249.314 67.852C249.666 67.468 249.842 66.9454 249.842 66.284V64.46H251.762V68.428H255.474V70.252H251.762V80.908C251.762 81.3774 251.831 81.836 251.97 82.284C252.108 82.732 252.38 83.0947 252.786 83.372C253.191 83.6494 253.778 83.788 254.546 83.788C254.716 83.788 254.924 83.7774 255.17 83.756C255.415 83.7347 255.612 83.7134 255.762 83.692V85.452C255.527 85.516 255.26 85.5587 254.962 85.58Z" fill="white"/>
<path d="M1137.36 79L1141.45 66.04H1144.62L1148.71 79H1146.48L1142.77 67.372H1143.26L1139.59 79H1137.36ZM1139.64 76.192V74.167H1146.44V76.192H1139.64ZM1155.01 79.27C1154.06 79.27 1153.26 79.045 1152.62 78.595C1151.98 78.145 1151.5 77.533 1151.17 76.759C1150.85 75.979 1150.69 75.106 1150.69 74.14C1150.69 73.162 1150.85 72.286 1151.17 71.512C1151.5 70.738 1151.97 70.129 1152.6 69.685C1153.23 69.235 1154 69.01 1154.93 69.01C1155.84 69.01 1156.64 69.235 1157.31 69.685C1157.99 70.129 1158.51 70.738 1158.89 71.512C1159.26 72.28 1159.44 73.156 1159.44 74.14C1159.44 75.112 1159.26 75.985 1158.9 76.759C1158.53 77.533 1158.01 78.145 1157.35 78.595C1156.68 79.045 1155.9 79.27 1155.01 79.27ZM1150.32 83.32V69.28H1152.24V76.102H1152.51V83.32H1150.32ZM1154.67 77.326C1155.24 77.326 1155.7 77.185 1156.07 76.903C1156.44 76.621 1156.71 76.24 1156.88 75.76C1157.06 75.274 1157.15 74.734 1157.15 74.14C1157.15 73.552 1157.06 73.018 1156.88 72.538C1156.7 72.052 1156.42 71.668 1156.04 71.386C1155.66 71.098 1155.18 70.954 1154.6 70.954C1154.05 70.954 1153.6 71.089 1153.25 71.359C1152.9 71.623 1152.65 71.995 1152.48 72.475C1152.32 72.949 1152.24 73.504 1152.24 74.14C1152.24 74.77 1152.32 75.325 1152.48 75.805C1152.65 76.285 1152.91 76.66 1153.26 76.93C1153.62 77.194 1154.09 77.326 1154.67 77.326ZM1166.1 79.27C1165.15 79.27 1164.36 79.045 1163.71 78.595C1163.07 78.145 1162.59 77.533 1162.26 76.759C1161.94 75.979 1161.78 75.106 1161.78 74.14C1161.78 73.162 1161.94 72.286 1162.26 71.512C1162.59 70.738 1163.06 70.129 1163.69 69.685C1164.32 69.235 1165.09 69.01 1166.02 69.01C1166.94 69.01 1167.73 69.235 1168.4 69.685C1169.08 70.129 1169.61 70.738 1169.98 71.512C1170.35 72.28 1170.54 73.156 1170.54 74.14C1170.54 75.112 1170.35 75.985 1169.99 76.759C1169.62 77.533 1169.1 78.145 1168.44 78.595C1167.77 79.045 1166.99 79.27 1166.1 79.27ZM1161.41 83.32V69.28H1163.33V76.102H1163.6V83.32H1161.41ZM1165.77 77.326C1166.33 77.326 1166.79 77.185 1167.16 76.903C1167.53 76.621 1167.8 76.24 1167.97 75.76C1168.15 75.274 1168.24 74.734 1168.24 74.14C1168.24 73.552 1168.15 73.018 1167.97 72.538C1167.79 72.052 1167.51 71.668 1167.13 71.386C1166.76 71.098 1166.28 70.954 1165.69 70.954C1165.14 70.954 1164.69 71.089 1164.34 71.359C1164 71.623 1163.74 71.995 1163.57 72.475C1163.41 72.949 1163.33 73.504 1163.33 74.14C1163.33 74.77 1163.41 75.325 1163.57 75.805C1163.74 76.285 1164 76.66 1164.35 76.93C1164.71 77.194 1165.18 77.326 1165.77 77.326ZM1172.7 79V65.77H1174.87V79H1172.7ZM1178.84 83.32L1180.71 78.181L1180.75 79.693L1176.51 69.28H1178.77L1181.78 76.984H1181.2L1184.13 69.28H1186.29L1180.88 83.32H1178.84ZM1192.09 79V69.127C1192.09 68.881 1192.1 68.611 1192.11 68.317C1192.13 68.017 1192.18 67.72 1192.27 67.426C1192.35 67.132 1192.5 66.865 1192.73 66.625C1193 66.319 1193.3 66.109 1193.62 65.995C1193.94 65.875 1194.26 65.809 1194.57 65.797C1194.88 65.779 1195.16 65.77 1195.39 65.77H1196.6V67.534H1195.48C1195.07 67.534 1194.76 67.639 1194.55 67.849C1194.35 68.053 1194.26 68.323 1194.26 68.659V79H1192.09ZM1190.52 70.981V69.28H1196.6V70.981H1190.52ZM1201.98 79.27C1201.01 79.27 1200.16 79.051 1199.44 78.613C1198.71 78.175 1198.15 77.572 1197.75 76.804C1197.35 76.03 1197.15 75.142 1197.15 74.14C1197.15 73.12 1197.36 72.226 1197.76 71.458C1198.17 70.69 1198.74 70.09 1199.46 69.658C1200.19 69.226 1201.03 69.01 1201.98 69.01C1202.96 69.01 1203.81 69.229 1204.54 69.667C1205.27 70.105 1205.83 70.711 1206.23 71.485C1206.63 72.253 1206.84 73.138 1206.84 74.14C1206.84 75.148 1206.63 76.039 1206.22 76.813C1205.82 77.581 1205.26 78.184 1204.53 78.622C1203.81 79.054 1202.96 79.27 1201.98 79.27ZM1201.98 77.236C1202.85 77.236 1203.49 76.948 1203.91 76.372C1204.33 75.796 1204.54 75.052 1204.54 74.14C1204.54 73.198 1204.33 72.448 1203.9 71.89C1203.48 71.326 1202.84 71.044 1201.98 71.044C1201.4 71.044 1200.92 71.176 1200.54 71.44C1200.17 71.698 1199.9 72.061 1199.72 72.529C1199.54 72.991 1199.45 73.528 1199.45 74.14C1199.45 75.082 1199.66 75.835 1200.09 76.399C1200.52 76.957 1201.15 77.236 1201.98 77.236ZM1208.82 79V69.28H1210.74V71.647L1210.5 71.341C1210.62 71.017 1210.78 70.723 1210.98 70.459C1211.18 70.189 1211.43 69.967 1211.71 69.793C1211.95 69.631 1212.21 69.505 1212.5 69.415C1212.79 69.319 1213.09 69.262 1213.4 69.244C1213.71 69.22 1214 69.232 1214.29 69.28V71.305C1214 71.221 1213.67 71.194 1213.29 71.224C1212.92 71.254 1212.58 71.359 1212.28 71.539C1211.98 71.701 1211.74 71.908 1211.55 72.16C1211.36 72.412 1211.22 72.7 1211.13 73.024C1211.04 73.342 1211 73.687 1211 74.059V79H1208.82ZM1222.33 79.27C1221.63 79.27 1221.03 79.138 1220.55 78.874C1220.06 78.604 1219.69 78.247 1219.44 77.803C1219.19 77.359 1219.07 76.87 1219.07 76.336C1219.07 75.868 1219.15 75.448 1219.31 75.076C1219.46 74.698 1219.7 74.374 1220.03 74.104C1220.35 73.828 1220.77 73.603 1221.29 73.429C1221.68 73.303 1222.13 73.189 1222.65 73.087C1223.18 72.985 1223.75 72.892 1224.36 72.808C1224.98 72.718 1225.63 72.622 1226.3 72.52L1225.52 72.961C1225.53 72.289 1225.38 71.794 1225.07 71.476C1224.77 71.158 1224.25 70.999 1223.53 70.999C1223.09 70.999 1222.67 71.101 1222.26 71.305C1221.85 71.509 1221.56 71.86 1221.4 72.358L1219.42 71.737C1219.66 70.915 1220.12 70.255 1220.79 69.757C1221.47 69.259 1222.38 69.01 1223.53 69.01C1224.39 69.01 1225.15 69.151 1225.8 69.433C1226.46 69.715 1226.95 70.177 1227.27 70.819C1227.44 71.161 1227.55 71.512 1227.59 71.872C1227.62 72.226 1227.64 72.613 1227.64 73.033V79H1225.74V76.894L1226.06 77.236C1225.62 77.938 1225.1 78.454 1224.52 78.784C1223.93 79.108 1223.21 79.27 1222.33 79.27ZM1222.76 77.542C1223.25 77.542 1223.67 77.455 1224.02 77.281C1224.37 77.107 1224.65 76.894 1224.85 76.642C1225.06 76.39 1225.2 76.153 1225.27 75.931C1225.39 75.655 1225.45 75.34 1225.46 74.986C1225.48 74.626 1225.49 74.335 1225.49 74.113L1226.15 74.311C1225.5 74.413 1224.94 74.503 1224.47 74.581C1224 74.659 1223.6 74.734 1223.27 74.806C1222.93 74.872 1222.63 74.947 1222.37 75.031C1222.12 75.121 1221.91 75.226 1221.74 75.346C1221.56 75.466 1221.43 75.604 1221.33 75.76C1221.24 75.916 1221.2 76.099 1221.2 76.309C1221.2 76.549 1221.26 76.762 1221.38 76.948C1221.5 77.128 1221.67 77.272 1221.9 77.38C1222.13 77.488 1222.42 77.542 1222.76 77.542ZM1234.2 79.27C1233.2 79.27 1232.35 79.048 1231.64 78.604C1230.93 78.154 1230.39 77.542 1230.01 76.768C1229.64 75.994 1229.45 75.118 1229.44 74.14C1229.45 73.144 1229.64 72.262 1230.03 71.494C1230.42 70.72 1230.97 70.114 1231.68 69.676C1232.4 69.232 1233.25 69.01 1234.23 69.01C1235.33 69.01 1236.27 69.289 1237.03 69.847C1237.8 70.399 1238.3 71.155 1238.53 72.115L1236.37 72.7C1236.2 72.178 1235.93 71.773 1235.54 71.485C1235.15 71.191 1234.7 71.044 1234.2 71.044C1233.64 71.044 1233.17 71.179 1232.81 71.449C1232.44 71.713 1232.17 72.079 1232 72.547C1231.82 73.015 1231.74 73.546 1231.74 74.14C1231.74 75.064 1231.94 75.811 1232.36 76.381C1232.77 76.951 1233.39 77.236 1234.2 77.236C1234.78 77.236 1235.23 77.104 1235.56 76.84C1235.9 76.576 1236.15 76.195 1236.32 75.697L1238.53 76.192C1238.23 77.182 1237.71 77.944 1236.96 78.478C1236.21 79.006 1235.29 79.27 1234.2 79.27ZM1244.29 79.27C1243.29 79.27 1242.44 79.048 1241.73 78.604C1241.02 78.154 1240.48 77.542 1240.1 76.768C1239.73 75.994 1239.54 75.118 1239.53 74.14C1239.54 73.144 1239.73 72.262 1240.12 71.494C1240.51 70.72 1241.06 70.114 1241.77 69.676C1242.49 69.232 1243.34 69.01 1244.32 69.01C1245.42 69.01 1246.36 69.289 1247.12 69.847C1247.89 70.399 1248.39 71.155 1248.62 72.115L1246.46 72.7C1246.29 72.178 1246.02 71.773 1245.63 71.485C1245.24 71.191 1244.79 71.044 1244.29 71.044C1243.73 71.044 1243.26 71.179 1242.9 71.449C1242.53 71.713 1242.26 72.079 1242.09 72.547C1241.91 73.015 1241.83 73.546 1241.83 74.14C1241.83 75.064 1242.03 75.811 1242.45 76.381C1242.86 76.951 1243.48 77.236 1244.29 77.236C1244.87 77.236 1245.32 77.104 1245.65 76.84C1245.99 76.576 1246.24 76.195 1246.41 75.697L1248.62 76.192C1248.32 77.182 1247.8 77.944 1247.05 78.478C1246.3 79.006 1245.38 79.27 1244.29 79.27ZM1254.58 79.27C1253.6 79.27 1252.73 79.057 1251.99 78.631C1251.25 78.205 1250.66 77.614 1250.24 76.858C1249.83 76.102 1249.62 75.232 1249.62 74.248C1249.62 73.186 1249.83 72.265 1250.23 71.485C1250.64 70.699 1251.21 70.09 1251.94 69.658C1252.66 69.226 1253.5 69.01 1254.46 69.01C1255.46 69.01 1256.32 69.247 1257.02 69.721C1257.73 70.189 1258.25 70.852 1258.6 71.71C1258.94 72.568 1259.07 73.579 1258.98 74.743H1256.83V73.951C1256.83 72.895 1256.64 72.124 1256.27 71.638C1255.91 71.152 1255.33 70.909 1254.55 70.909C1253.66 70.909 1253 71.185 1252.57 71.737C1252.13 72.283 1251.92 73.084 1251.92 74.14C1251.92 75.124 1252.13 75.886 1252.57 76.426C1253 76.966 1253.63 77.236 1254.46 77.236C1254.99 77.236 1255.45 77.119 1255.83 76.885C1256.22 76.645 1256.52 76.3 1256.73 75.85L1258.87 76.498C1258.5 77.374 1257.93 78.055 1257.15 78.541C1256.37 79.027 1255.52 79.27 1254.58 79.27ZM1251.23 74.743V73.105H1257.92V74.743H1251.23ZM1264.74 79.27C1263.54 79.27 1262.57 79 1261.82 78.46C1261.07 77.92 1260.61 77.161 1260.45 76.183L1262.66 75.841C1262.78 76.321 1263.03 76.699 1263.42 76.975C1263.81 77.251 1264.3 77.389 1264.9 77.389C1265.42 77.389 1265.82 77.287 1266.1 77.083C1266.39 76.873 1266.53 76.588 1266.53 76.228C1266.53 76.006 1266.48 75.829 1266.37 75.697C1266.27 75.559 1266.04 75.427 1265.69 75.301C1265.33 75.175 1264.79 75.016 1264.06 74.824C1263.24 74.608 1262.6 74.377 1262.12 74.131C1261.64 73.879 1261.29 73.582 1261.08 73.24C1260.87 72.898 1260.77 72.484 1260.77 71.998C1260.77 71.392 1260.92 70.864 1261.24 70.414C1261.56 69.964 1262 69.619 1262.57 69.379C1263.14 69.133 1263.82 69.01 1264.59 69.01C1265.35 69.01 1266.02 69.127 1266.6 69.361C1267.19 69.595 1267.66 69.928 1268.02 70.36C1268.38 70.792 1268.6 71.299 1268.69 71.881L1266.47 72.277C1266.42 71.863 1266.23 71.536 1265.9 71.296C1265.59 71.056 1265.16 70.921 1264.63 70.891C1264.12 70.861 1263.71 70.939 1263.39 71.125C1263.08 71.305 1262.93 71.56 1262.93 71.89C1262.93 72.076 1262.99 72.235 1263.11 72.367C1263.24 72.499 1263.49 72.631 1263.87 72.763C1264.25 72.895 1264.82 73.057 1265.58 73.249C1266.35 73.447 1266.97 73.675 1267.43 73.933C1267.9 74.185 1268.24 74.488 1268.44 74.842C1268.65 75.196 1268.76 75.625 1268.76 76.129C1268.76 77.107 1268.4 77.875 1267.69 78.433C1266.98 78.991 1266 79.27 1264.74 79.27ZM1274.48 79.27C1273.28 79.27 1272.31 79 1271.56 78.46C1270.81 77.92 1270.35 77.161 1270.19 76.183L1272.4 75.841C1272.52 76.321 1272.77 76.699 1273.16 76.975C1273.55 77.251 1274.04 77.389 1274.63 77.389C1275.16 77.389 1275.56 77.287 1275.84 77.083C1276.13 76.873 1276.27 76.588 1276.27 76.228C1276.27 76.006 1276.22 75.829 1276.11 75.697C1276.01 75.559 1275.78 75.427 1275.43 75.301C1275.07 75.175 1274.53 75.016 1273.8 74.824C1272.98 74.608 1272.33 74.377 1271.85 74.131C1271.37 73.879 1271.03 73.582 1270.82 73.24C1270.61 72.898 1270.5 72.484 1270.5 71.998C1270.5 71.392 1270.66 70.864 1270.98 70.414C1271.3 69.964 1271.74 69.619 1272.31 69.379C1272.88 69.133 1273.55 69.01 1274.33 69.01C1275.08 69.01 1275.75 69.127 1276.34 69.361C1276.92 69.595 1277.4 69.928 1277.76 70.36C1278.12 70.792 1278.34 71.299 1278.42 71.881L1276.21 72.277C1276.16 71.863 1275.97 71.536 1275.64 71.296C1275.32 71.056 1274.9 70.921 1274.36 70.891C1273.85 70.861 1273.44 70.939 1273.13 71.125C1272.82 71.305 1272.66 71.56 1272.66 71.89C1272.66 72.076 1272.73 72.235 1272.85 72.367C1272.98 72.499 1273.23 72.631 1273.61 72.763C1273.99 72.895 1274.56 73.057 1275.32 73.249C1276.09 73.447 1276.71 73.675 1277.17 73.933C1277.64 74.185 1277.98 74.488 1278.18 74.842C1278.39 75.196 1278.5 75.625 1278.5 76.129C1278.5 77.107 1278.14 77.875 1277.42 78.433C1276.72 78.991 1275.74 79.27 1274.48 79.27Z" fill="white"/>
<rect x="1137" y="88" width="143" height="3" fill="#44FFA1"/>
<path d="M478.033 215.76C478.033 215.573 478.179 215.467 478.473 215.44L481.913 214.92C482.846 214.787 483.313 214.413 483.313 213.8V162.32C483.313 161.653 482.859 161.24 481.953 161.08L478.393 160.52C478.153 160.493 478.033 160.4 478.033 160.24C478.033 160.08 478.153 160 478.393 160H497.753C504.179 160 509.833 161.24 514.713 163.72C519.619 166.173 523.446 169.72 526.193 174.36C528.966 179 530.353 184.56 530.353 191.04C530.353 196.293 529.166 200.787 526.793 204.52C524.419 208.227 521.086 211.067 516.793 213.04C512.526 215.013 507.553 216 501.873 216H478.393C478.153 216 478.033 215.92 478.033 215.76ZM501.873 215.28C505.073 215.28 507.926 214.4 510.433 212.64C512.966 210.853 514.953 208.093 516.393 204.36C517.859 200.6 518.593 195.747 518.593 189.8C518.593 180.413 516.739 173.227 513.033 168.24C509.326 163.227 504.246 160.72 497.793 160.72H494.513V213.8C494.513 214.787 495.019 215.28 496.033 215.28H501.873ZM534.336 208.24C534.336 205.333 535.536 203 537.936 201.24C540.336 199.453 544.15 198.56 549.376 198.56C550.496 198.56 551.47 198.64 552.296 198.8C553.123 198.96 553.883 199.173 554.576 199.44V186.56C554.576 182.613 553.03 180.64 549.936 180.64C548.256 180.64 547.003 181.053 546.176 181.88C545.376 182.707 544.976 183.653 544.976 184.72V187.96C544.976 189.267 544.496 190.387 543.536 191.32C542.603 192.227 541.403 192.68 539.936 192.68C538.896 192.68 538.03 192.36 537.336 191.72C536.67 191.08 536.336 190.133 536.336 188.88C536.336 187.493 536.896 186.12 538.016 184.76C539.136 183.4 540.79 182.28 542.976 181.4C545.163 180.52 547.87 180.08 551.096 180.08C555.47 180.08 558.736 181 560.896 182.84C563.083 184.653 564.176 187.24 564.176 190.6V211.36C564.176 213.12 564.736 214 565.856 214C566.336 214 566.763 213.853 567.136 213.56C567.51 213.267 567.75 212.773 567.856 212.08C567.856 211.92 567.923 211.84 568.056 211.84C568.19 211.84 568.256 211.92 568.256 212.08C568.256 212.587 568.016 213.213 567.536 213.96C567.083 214.68 566.336 215.32 565.296 215.88C564.256 216.44 562.87 216.72 561.136 216.72C559.003 216.72 557.443 216.307 556.456 215.48C555.496 214.653 555.016 213.613 555.016 212.36C553.79 213.8 552.243 214.893 550.376 215.64C548.536 216.36 546.576 216.72 544.496 216.72C541.483 216.72 539.03 215.933 537.136 214.36C535.27 212.76 534.336 210.72 534.336 208.24ZM543.856 206.84C543.856 209.187 544.376 210.973 545.416 212.2C546.456 213.4 547.803 214 549.456 214C551.376 214 553.083 213.32 554.576 211.96V199.96C553.163 199.453 551.67 199.2 550.096 199.2C548.07 199.2 546.523 199.867 545.456 201.2C544.39 202.533 543.856 204.413 543.856 206.84ZM573.303 182.2L569.823 181.48C569.556 181.427 569.423 181.32 569.423 181.16C569.423 180.973 569.516 180.88 569.703 180.88H573.223C573.543 180.88 573.796 180.76 573.983 180.52L581.703 172.92C581.996 172.627 582.276 172.48 582.543 172.48C582.889 172.48 583.063 172.68 583.063 173.08V180.88H592.263C592.529 180.88 592.663 180.987 592.663 181.2C592.663 181.547 592.329 181.72 591.662 181.72H583.063V206.76C583.063 208.92 583.463 210.533 584.263 211.6C585.089 212.64 586.209 213.16 587.623 213.16C588.636 213.16 589.543 212.853 590.343 212.24C591.169 211.6 591.783 210.507 592.183 208.96C592.236 208.8 592.316 208.733 592.423 208.76C592.529 208.76 592.569 208.84 592.543 209C591.903 211.613 590.876 213.56 589.463 214.84C588.049 216.093 586.063 216.72 583.503 216.72C580.409 216.72 578.023 215.987 576.343 214.52C574.663 213.053 573.823 210.8 573.823 207.76V182.96C573.823 182.507 573.649 182.253 573.303 182.2ZM594.805 208.24C594.805 205.333 596.005 203 598.405 201.24C600.805 199.453 604.618 198.56 609.845 198.56C610.965 198.56 611.938 198.64 612.765 198.8C613.592 198.96 614.352 199.173 615.045 199.44V186.56C615.045 182.613 613.498 180.64 610.405 180.64C608.725 180.64 607.472 181.053 606.645 181.88C605.845 182.707 605.445 183.653 605.445 184.72V187.96C605.445 189.267 604.965 190.387 604.005 191.32C603.072 192.227 601.872 192.68 600.405 192.68C599.365 192.68 598.498 192.36 597.805 191.72C597.138 191.08 596.805 190.133 596.805 188.88C596.805 187.493 597.365 186.12 598.485 184.76C599.605 183.4 601.258 182.28 603.445 181.4C605.632 180.52 608.338 180.08 611.565 180.08C615.938 180.08 619.205 181 621.365 182.84C623.552 184.653 624.645 187.24 624.645 190.6V211.36C624.645 213.12 625.205 214 626.325 214C626.805 214 627.232 213.853 627.605 213.56C627.978 213.267 628.218 212.773 628.325 212.08C628.325 211.92 628.392 211.84 628.525 211.84C628.658 211.84 628.725 211.92 628.725 212.08C628.725 212.587 628.485 213.213 628.005 213.96C627.552 214.68 626.805 215.32 625.765 215.88C624.725 216.44 623.338 216.72 621.605 216.72C619.472 216.72 617.912 216.307 616.925 215.48C615.965 214.653 615.485 213.613 615.485 212.36C614.258 213.8 612.712 214.893 610.845 215.64C609.005 216.36 607.045 216.72 604.965 216.72C601.952 216.72 599.498 215.933 597.605 214.36C595.738 212.76 594.805 210.72 594.805 208.24ZM604.325 206.84C604.325 209.187 604.845 210.973 605.885 212.2C606.925 213.4 608.272 214 609.925 214C611.845 214 613.552 213.32 615.045 211.96V199.96C613.632 199.453 612.138 199.2 610.565 199.2C608.538 199.2 606.992 199.867 605.925 201.2C604.858 202.533 604.325 204.413 604.325 206.84ZM646.584 182.2L643.104 181.48C642.837 181.427 642.704 181.32 642.704 181.16C642.704 180.973 642.797 180.88 642.984 180.88H646.504C646.824 180.88 647.077 180.76 647.264 180.52L654.984 172.92C655.277 172.627 655.557 172.48 655.824 172.48C656.17 172.48 656.344 172.68 656.344 173.08V180.88H665.544C665.81 180.88 665.944 180.987 665.944 181.2C665.944 181.547 665.61 181.72 664.944 181.72H656.344V206.76C656.344 208.92 656.744 210.533 657.544 211.6C658.37 212.64 659.49 213.16 660.904 213.16C661.917 213.16 662.824 212.853 663.624 212.24C664.45 211.6 665.064 210.507 665.464 208.96C665.517 208.8 665.597 208.733 665.704 208.76C665.81 208.76 665.85 208.84 665.824 209C665.184 211.613 664.157 213.56 662.744 214.84C661.33 216.093 659.344 216.72 656.784 216.72C653.69 216.72 651.304 215.987 649.624 214.52C647.944 213.053 647.104 210.8 647.104 207.76V182.96C647.104 182.507 646.93 182.253 646.584 182.2ZM668.086 208.24C668.086 205.333 669.286 203 671.686 201.24C674.086 199.453 677.9 198.56 683.126 198.56C684.246 198.56 685.22 198.64 686.046 198.8C686.873 198.96 687.633 199.173 688.326 199.44V186.56C688.326 182.613 686.78 180.64 683.686 180.64C682.006 180.64 680.753 181.053 679.926 181.88C679.126 182.707 678.726 183.653 678.726 184.72V187.96C678.726 189.267 678.246 190.387 677.286 191.32C676.353 192.227 675.153 192.68 673.686 192.68C672.646 192.68 671.78 192.36 671.086 191.72C670.42 191.08 670.086 190.133 670.086 188.88C670.086 187.493 670.646 186.12 671.766 184.76C672.886 183.4 674.54 182.28 676.726 181.4C678.913 180.52 681.62 180.08 684.846 180.08C689.22 180.08 692.486 181 694.646 182.84C696.833 184.653 697.926 187.24 697.926 190.6V211.36C697.926 213.12 698.486 214 699.606 214C700.086 214 700.513 213.853 700.886 213.56C701.26 213.267 701.5 212.773 701.606 212.08C701.606 211.92 701.673 211.84 701.806 211.84C701.94 211.84 702.006 211.92 702.006 212.08C702.006 212.587 701.766 213.213 701.286 213.96C700.833 214.68 700.086 215.32 699.046 215.88C698.006 216.44 696.62 216.72 694.886 216.72C692.753 216.72 691.193 216.307 690.206 215.48C689.246 214.653 688.766 213.613 688.766 212.36C687.54 213.8 685.993 214.893 684.126 215.64C682.286 216.36 680.326 216.72 678.246 216.72C675.233 216.72 672.78 215.933 670.886 214.36C669.02 212.76 668.086 210.72 668.086 208.24ZM677.606 206.84C677.606 209.187 678.126 210.973 679.166 212.2C680.206 213.4 681.553 214 683.206 214C685.126 214 686.833 213.32 688.326 211.96V199.96C686.913 199.453 685.42 199.2 683.846 199.2C681.82 199.2 680.273 199.867 679.206 201.2C678.14 202.533 677.606 204.413 677.606 206.84ZM712.533 175.12C710.853 175.12 709.479 174.56 708.413 173.44C707.373 172.32 706.853 170.96 706.853 169.36C706.853 167.733 707.386 166.36 708.453 165.24C709.519 164.12 710.879 163.56 712.533 163.56C714.213 163.56 715.586 164.12 716.653 165.24C717.746 166.36 718.293 167.733 718.293 169.36C718.293 170.96 717.746 172.32 716.653 173.44C715.586 174.56 714.213 175.12 712.533 175.12ZM717.493 180.64V213.8C717.493 214.52 717.813 214.933 718.453 215.04L720.653 215.44C720.919 215.467 721.053 215.573 721.053 215.76C721.053 215.92 720.946 216 720.733 216H704.613C704.399 216 704.293 215.92 704.293 215.76C704.293 215.627 704.426 215.533 704.693 215.48L706.973 215.04C707.613 214.933 707.933 214.533 707.933 213.84V184.6C707.933 184.253 707.759 184.08 707.413 184.08H704.813C704.573 184.08 704.453 183.987 704.453 183.8C704.453 183.693 704.559 183.6 704.773 183.52L716.253 180.32C716.626 180.213 716.893 180.16 717.053 180.16C717.346 180.16 717.493 180.32 717.493 180.64ZM736.873 157.08V213.8C736.873 214.52 737.193 214.933 737.833 215.04L740.033 215.44C740.3 215.467 740.433 215.573 740.433 215.76C740.433 215.92 740.326 216 740.113 216H723.993C723.78 216 723.673 215.92 723.673 215.76C723.673 215.6 723.846 215.48 724.193 215.4L726.353 215.04C726.993 214.933 727.313 214.533 727.313 213.84V161.08C727.313 160.733 727.14 160.56 726.793 160.56H724.193C723.953 160.56 723.833 160.467 723.833 160.28C723.833 160.147 723.94 160.04 724.153 159.96L735.633 156.76C736.006 156.68 736.273 156.64 736.433 156.64C736.726 156.64 736.873 156.787 736.873 157.08ZM761.643 180.08C765.163 180.08 768.283 180.867 771.003 182.44C773.723 184.013 775.856 186.2 777.403 189C778.949 191.773 779.723 194.973 779.723 198.6C779.723 202.173 778.923 205.333 777.323 208.08C775.749 210.8 773.563 212.933 770.763 214.48C767.963 216.027 764.763 216.8 761.163 216.8C757.643 216.8 754.523 216.04 751.803 214.52C749.109 212.973 746.989 210.84 745.443 208.12C743.923 205.373 743.163 202.2 743.163 198.6C743.163 195 743.949 191.813 745.523 189.04C747.096 186.24 749.269 184.053 752.043 182.48C754.843 180.88 758.043 180.08 761.643 180.08ZM763.602 216.12C766.056 215.88 767.843 214.213 768.963 211.12C770.083 208 770.309 203.507 769.643 197.64C768.949 191.747 767.709 187.4 765.923 184.6C764.136 181.8 761.936 180.533 759.323 180.8C756.763 181.067 754.949 182.773 753.883 185.92C752.843 189.067 752.669 193.52 753.363 199.28C754.029 205.067 755.269 209.387 757.083 212.24C758.923 215.093 761.096 216.387 763.602 216.12ZM795.888 180.92V190.84C796.581 187.293 797.875 184.613 799.768 182.8C801.661 180.987 803.675 180.08 805.808 180.08C807.781 180.08 809.301 180.707 810.368 181.96C811.435 183.187 811.968 184.947 811.968 187.24C811.968 189.213 811.501 190.693 810.568 191.68C809.661 192.64 808.501 193.12 807.088 193.12C804.581 193.12 803.275 191.693 803.168 188.84L803.088 187.56C803.061 185.88 802.341 185.04 800.928 185.04C799.675 185.04 798.515 185.973 797.448 187.84C796.408 189.707 795.888 192.52 795.888 196.28V213.56C795.888 214.253 796.221 214.667 796.888 214.8L800.848 215.44C801.088 215.493 801.208 215.6 801.208 215.76C801.208 215.92 801.088 216 800.848 216H783.088C782.821 216 782.688 215.907 782.688 215.72C782.688 215.56 782.861 215.453 783.208 215.4L785.368 215.04C786.008 214.933 786.328 214.573 786.328 213.96V184.48C786.328 184.053 786.155 183.84 785.808 183.84H783.088C782.901 183.84 782.808 183.76 782.808 183.6C782.808 183.467 782.928 183.36 783.168 183.28L794.688 180.52C795.088 180.44 795.341 180.4 795.448 180.4C795.741 180.4 795.888 180.573 795.888 180.92ZM846.1 195.32C846.1 195.827 845.793 196.08 845.18 196.08H822.74C822.9 201.227 824.113 205.08 826.38 207.64C828.673 210.2 831.62 211.48 835.22 211.48C837.967 211.48 840.287 210.72 842.18 209.2C844.1 207.653 845.167 205.573 845.38 202.96C845.407 202.773 845.487 202.68 845.62 202.68C845.807 202.68 845.887 202.8 845.86 203.04C845.7 205.68 844.927 208.04 843.54 210.12C842.18 212.173 840.367 213.8 838.1 215C835.86 216.2 833.34 216.8 830.54 216.8C827.233 216.8 824.327 216.067 821.82 214.6C819.313 213.133 817.353 211.08 815.94 208.44C814.553 205.773 813.86 202.667 813.86 199.12C813.86 195.333 814.58 192.013 816.02 189.16C817.46 186.307 819.473 184.08 822.06 182.48C824.673 180.88 827.727 180.08 831.22 180.08C834.233 180.08 836.847 180.747 839.06 182.08C841.3 183.387 843.033 185.187 844.26 187.48C845.487 189.773 846.1 192.387 846.1 195.32ZM822.74 195C822.74 195.133 822.74 195.267 822.74 195.4H835.9C836.353 195.4 836.58 195.147 836.58 194.64C836.58 189.893 835.94 186.387 834.66 184.12C833.38 181.853 831.847 180.72 830.06 180.72C827.82 180.72 826.033 181.893 824.7 184.24C823.393 186.56 822.74 190.147 822.74 195ZM849.222 199.48C849.222 195.48 849.969 192.04 851.462 189.16C852.955 186.253 854.955 184.013 857.462 182.44C859.995 180.867 862.795 180.08 865.862 180.08C867.835 180.08 869.529 180.373 870.942 180.96C872.355 181.52 873.569 182.32 874.582 183.36V161.08C874.582 160.733 874.409 160.56 874.062 160.56H871.462C871.222 160.56 871.102 160.467 871.102 160.28C871.102 160.147 871.209 160.04 871.422 159.96L882.902 156.76C883.275 156.68 883.542 156.64 883.702 156.64C883.995 156.64 884.142 156.787 884.142 157.08V213.8C884.142 214.52 884.462 214.933 885.102 215.04L887.302 215.44C887.569 215.467 887.702 215.573 887.702 215.76C887.702 215.92 887.595 216 887.382 216H875.622C874.929 216 874.582 215.613 874.582 214.84V211.64C872.875 213.507 871.182 214.84 869.502 215.64C867.849 216.413 866.009 216.8 863.982 216.8C861.102 216.8 858.542 216.107 856.302 214.72C854.089 213.307 852.355 211.307 851.102 208.72C849.849 206.133 849.222 203.053 849.222 199.48ZM858.902 198.6C858.902 204.173 859.662 208.253 861.182 210.84C862.729 213.427 864.715 214.72 867.142 214.72C868.342 214.72 869.582 214.4 870.862 213.76C872.142 213.12 873.382 212.107 874.582 210.72V184.44C872.982 182.387 870.822 181.36 868.102 181.36C866.395 181.36 864.849 181.92 863.462 183.04C862.075 184.16 860.969 185.987 860.142 188.52C859.315 191.027 858.902 194.387 858.902 198.6ZM905.099 182.2L901.619 181.48C901.353 181.427 901.219 181.32 901.219 181.16C901.219 180.973 901.313 180.88 901.499 180.88H905.019C905.339 180.88 905.593 180.76 905.779 180.52L913.499 172.92C913.793 172.627 914.073 172.48 914.339 172.48C914.686 172.48 914.859 172.68 914.859 173.08V180.88H924.059C924.326 180.88 924.459 180.987 924.459 181.2C924.459 181.547 924.126 181.72 923.459 181.72H914.859V206.76C914.859 208.92 915.259 210.533 916.059 211.6C916.886 212.64 918.006 213.16 919.419 213.16C920.433 213.16 921.339 212.853 922.139 212.24C922.966 211.6 923.579 210.507 923.979 208.96C924.033 208.8 924.113 208.733 924.219 208.76C924.326 208.76 924.366 208.84 924.339 209C923.699 211.613 922.673 213.56 921.259 214.84C919.846 216.093 917.859 216.72 915.299 216.72C912.206 216.72 909.819 215.987 908.139 214.52C906.459 213.053 905.619 210.8 905.619 207.76V182.96C905.619 182.507 905.446 182.253 905.099 182.2ZM945.002 180.08C948.522 180.08 951.642 180.867 954.362 182.44C957.082 184.013 959.215 186.2 960.762 189C962.309 191.773 963.082 194.973 963.082 198.6C963.082 202.173 962.282 205.333 960.682 208.08C959.109 210.8 956.922 212.933 954.122 214.48C951.322 216.027 948.122 216.8 944.522 216.8C941.002 216.8 937.882 216.04 935.162 214.52C932.469 212.973 930.349 210.84 928.802 208.12C927.282 205.373 926.522 202.2 926.522 198.6C926.522 195 927.309 191.813 928.882 189.04C930.455 186.24 932.629 184.053 935.402 182.48C938.202 180.88 941.402 180.08 945.002 180.08ZM946.962 216.12C949.415 215.88 951.202 214.213 952.322 211.12C953.442 208 953.669 203.507 953.002 197.64C952.309 191.747 951.069 187.4 949.282 184.6C947.495 181.8 945.295 180.533 942.682 180.8C940.122 181.067 938.309 182.773 937.242 185.92C936.202 189.067 936.029 193.52 936.722 199.28C937.389 205.067 938.629 209.387 940.442 212.24C942.282 215.093 944.455 216.387 946.962 216.12ZM555.856 304.48L558.016 299.04L544.456 266.88C543.096 263.6 541.443 261.8 539.496 261.48C539.123 261.4 538.936 261.293 538.936 261.16C538.936 260.973 539.043 260.88 539.256 260.88H557.336C557.576 260.88 557.696 260.987 557.696 261.2C557.696 261.36 557.563 261.453 557.296 261.48L554.536 261.88C553.229 262.067 552.949 263.067 553.696 264.88L562.696 286.88L570.656 266.08C571.163 264.747 571.256 263.787 570.936 263.2C570.643 262.587 570.016 262.173 569.056 261.96L566.856 261.52C566.563 261.44 566.416 261.333 566.416 261.2C566.416 260.987 566.536 260.88 566.776 260.88H576.536C576.803 260.88 576.936 260.987 576.936 261.2C576.936 261.333 576.789 261.427 576.496 261.48C575.083 261.747 573.989 262.213 573.216 262.88C572.443 263.547 571.776 264.613 571.216 266.08L556.256 305C555.323 307.48 554.509 309.493 553.816 311.04C553.149 312.613 552.363 313.76 551.456 314.48C550.549 315.227 549.283 315.6 547.656 315.6C545.603 315.6 543.949 314.973 542.696 313.72C541.443 312.493 540.816 311 540.816 309.24C540.816 307.907 541.163 306.867 541.856 306.12C542.549 305.4 543.416 305.04 544.456 305.04C546.189 305.04 547.403 306.2 548.096 308.52L548.576 310.12C548.763 310.92 549.043 311.64 549.416 312.28C549.816 312.92 550.336 313.24 550.976 313.24C551.723 313.24 552.456 312.467 553.176 310.92C553.923 309.373 554.816 307.227 555.856 304.48ZM596.291 260.08C599.811 260.08 602.931 260.867 605.651 262.44C608.371 264.013 610.504 266.2 612.051 269C613.598 271.773 614.371 274.973 614.371 278.6C614.371 282.173 613.571 285.333 611.971 288.08C610.398 290.8 608.211 292.933 605.411 294.48C602.611 296.027 599.411 296.8 595.811 296.8C592.291 296.8 589.171 296.04 586.451 294.52C583.758 292.973 581.638 290.84 580.091 288.12C578.571 285.373 577.811 282.2 577.811 278.6C577.811 275 578.598 271.813 580.171 269.04C581.744 266.24 583.918 264.053 586.691 262.48C589.491 260.88 592.691 260.08 596.291 260.08ZM598.251 296.12C600.704 295.88 602.491 294.213 603.611 291.12C604.731 288 604.958 283.507 604.291 277.64C603.598 271.747 602.358 267.4 600.571 264.6C598.784 261.8 596.584 260.533 593.971 260.8C591.411 261.067 589.598 262.773 588.531 265.92C587.491 269.067 587.318 273.52 588.011 279.28C588.678 285.067 589.918 289.387 591.731 292.24C593.571 295.093 595.744 296.387 598.251 296.12ZM620.697 286.64V264.72C620.697 264.373 620.51 264.2 620.137 264.2H617.537C617.297 264.2 617.177 264.107 617.177 263.92C617.177 263.787 617.283 263.68 617.497 263.6L629.017 260.4C629.39 260.293 629.657 260.24 629.817 260.24C630.11 260.24 630.257 260.4 630.257 260.72V285.68C630.257 288.027 630.777 289.747 631.817 290.84C632.857 291.933 634.283 292.48 636.097 292.48C637.217 292.48 638.35 292.24 639.497 291.76C640.643 291.28 641.79 290.52 642.937 289.48L643.377 289.08V264.72C643.377 264.373 643.19 264.2 642.817 264.2H640.217C639.977 264.2 639.857 264.107 639.857 263.92C639.857 263.787 639.977 263.68 640.217 263.6L651.657 260.4C652.03 260.293 652.31 260.24 652.497 260.24C652.763 260.24 652.897 260.4 652.897 260.72V293.8C652.897 294.52 653.217 294.933 653.857 295.04L656.057 295.44C656.35 295.467 656.497 295.573 656.497 295.76C656.497 295.92 656.377 296 656.137 296H644.417C643.723 296 643.377 295.613 643.377 294.84V289.88L643.297 289.96C640.523 292.413 638.03 294.147 635.817 295.16C633.63 296.173 631.59 296.68 629.697 296.68C627.083 296.68 624.923 295.88 623.217 294.28C621.537 292.653 620.697 290.107 620.697 286.64ZM672.021 260.92V270.84C672.714 267.293 674.008 264.613 675.901 262.8C677.794 260.987 679.808 260.08 681.941 260.08C683.914 260.08 685.434 260.707 686.501 261.96C687.568 263.187 688.101 264.947 688.101 267.24C688.101 269.213 687.634 270.693 686.701 271.68C685.794 272.64 684.634 273.12 683.221 273.12C680.714 273.12 679.408 271.693 679.301 268.84L679.221 267.56C679.194 265.88 678.474 265.04 677.061 265.04C675.808 265.04 674.648 265.973 673.581 267.84C672.541 269.707 672.021 272.52 672.021 276.28V293.56C672.021 294.253 672.354 294.667 673.021 294.8L676.981 295.44C677.221 295.493 677.341 295.6 677.341 295.76C677.341 295.92 677.221 296 676.981 296H659.221C658.954 296 658.821 295.907 658.821 295.72C658.821 295.56 658.994 295.453 659.341 295.4L661.501 295.04C662.141 294.933 662.461 294.573 662.461 293.96V264.48C662.461 264.053 662.288 263.84 661.941 263.84H659.221C659.034 263.84 658.941 263.76 658.941 263.6C658.941 263.467 659.061 263.36 659.301 263.28L670.821 260.52C671.221 260.44 671.474 260.4 671.581 260.4C671.874 260.4 672.021 260.573 672.021 260.92ZM715.965 260.64V267.04L716.205 266.84C718.845 264.467 721.125 262.747 723.045 261.68C724.992 260.613 726.805 260.08 728.485 260.08C730.939 260.08 732.845 260.853 734.205 262.4C735.565 263.92 736.445 266.307 736.845 269.56L739.845 293.56C739.952 294.467 740.352 294.987 741.045 295.12L743.005 295.48C743.245 295.507 743.365 295.6 743.365 295.76C743.365 295.92 743.259 296 743.045 296H726.645C726.405 296 726.285 295.92 726.285 295.76C726.285 295.6 726.432 295.493 726.725 295.44L729.005 295.04C729.832 294.907 730.192 294.413 730.085 293.56L727.445 270.52C727.152 268.36 726.632 266.787 725.885 265.8C725.165 264.813 724.059 264.32 722.565 264.32C720.752 264.32 718.752 265.307 716.565 267.28L715.965 267.84V293.8C715.965 294.52 716.285 294.933 716.925 295.04L719.125 295.44C719.392 295.467 719.525 295.573 719.525 295.76C719.525 295.92 719.419 296 719.205 296H703.085C702.872 296 702.765 295.92 702.765 295.76C702.765 295.627 702.899 295.533 703.165 295.48L705.445 295.04C706.085 294.933 706.405 294.533 706.405 293.84V264.6C706.405 264.253 706.232 264.08 705.885 264.08H703.285C703.045 264.08 702.925 263.987 702.925 263.8C702.925 263.693 703.032 263.6 703.245 263.52L714.725 260.32C715.099 260.213 715.365 260.16 715.525 260.16C715.819 260.16 715.965 260.32 715.965 260.64ZM776.53 275.32C776.53 275.827 776.223 276.08 775.61 276.08H753.17C753.33 281.227 754.543 285.08 756.81 287.64C759.103 290.2 762.05 291.48 765.65 291.48C768.396 291.48 770.716 290.72 772.61 289.2C774.53 287.653 775.596 285.573 775.81 282.96C775.836 282.773 775.916 282.68 776.05 282.68C776.236 282.68 776.316 282.8 776.29 283.04C776.13 285.68 775.356 288.04 773.97 290.12C772.61 292.173 770.796 293.8 768.53 295C766.29 296.2 763.77 296.8 760.97 296.8C757.663 296.8 754.756 296.067 752.25 294.6C749.743 293.133 747.783 291.08 746.37 288.44C744.983 285.773 744.29 282.667 744.29 279.12C744.29 275.333 745.01 272.013 746.45 269.16C747.89 266.307 749.903 264.08 752.49 262.48C755.103 260.88 758.156 260.08 761.65 260.08C764.663 260.08 767.276 260.747 769.49 262.08C771.73 263.387 773.463 265.187 774.69 267.48C775.916 269.773 776.53 272.387 776.53 275.32ZM753.17 275C753.17 275.133 753.17 275.267 753.17 275.4H766.33C766.783 275.4 767.01 275.147 767.01 274.64C767.01 269.893 766.37 266.387 765.09 264.12C763.81 261.853 762.276 260.72 760.49 260.72C758.25 260.72 756.463 261.893 755.13 264.24C753.823 266.56 753.17 270.147 753.17 275ZM811.452 275.32C811.452 275.827 811.145 276.08 810.532 276.08H788.092C788.252 281.227 789.465 285.08 791.732 287.64C794.025 290.2 796.972 291.48 800.572 291.48C803.318 291.48 805.638 290.72 807.532 289.2C809.452 287.653 810.518 285.573 810.732 282.96C810.758 282.773 810.838 282.68 810.972 282.68C811.158 282.68 811.238 282.8 811.212 283.04C811.052 285.68 810.278 288.04 808.892 290.12C807.532 292.173 805.718 293.8 803.452 295C801.212 296.2 798.692 296.8 795.892 296.8C792.585 296.8 789.678 296.067 787.172 294.6C784.665 293.133 782.705 291.08 781.292 288.44C779.905 285.773 779.212 282.667 779.212 279.12C779.212 275.333 779.932 272.013 781.372 269.16C782.812 266.307 784.825 264.08 787.412 262.48C790.025 260.88 793.078 260.08 796.572 260.08C799.585 260.08 802.198 260.747 804.412 262.08C806.652 263.387 808.385 265.187 809.612 267.48C810.838 269.773 811.452 272.387 811.452 275.32ZM788.092 275C788.092 275.133 788.092 275.267 788.092 275.4H801.252C801.705 275.4 801.932 275.147 801.932 274.64C801.932 269.893 801.292 266.387 800.012 264.12C798.732 261.853 797.198 260.72 795.412 260.72C793.172 260.72 791.385 261.893 790.052 264.24C788.745 266.56 788.092 270.147 788.092 275ZM814.573 279.48C814.573 275.48 815.32 272.04 816.813 269.16C818.307 266.253 820.307 264.013 822.813 262.44C825.347 260.867 828.147 260.08 831.213 260.08C833.187 260.08 834.88 260.373 836.293 260.96C837.707 261.52 838.92 262.32 839.933 263.36V241.08C839.933 240.733 839.76 240.56 839.413 240.56H836.813C836.573 240.56 836.453 240.467 836.453 240.28C836.453 240.147 836.56 240.04 836.773 239.96L848.253 236.76C848.627 236.68 848.893 236.64 849.053 236.64C849.347 236.64 849.493 236.787 849.493 237.08V293.8C849.493 294.52 849.813 294.933 850.453 295.04L852.653 295.44C852.92 295.467 853.053 295.573 853.053 295.76C853.053 295.92 852.947 296 852.733 296H840.973C840.28 296 839.933 295.613 839.933 294.84V291.64C838.227 293.507 836.533 294.84 834.853 295.64C833.2 296.413 831.36 296.8 829.333 296.8C826.453 296.8 823.893 296.107 821.653 294.72C819.44 293.307 817.707 291.307 816.453 288.72C815.2 286.133 814.573 283.053 814.573 279.48ZM824.253 278.6C824.253 284.173 825.013 288.253 826.533 290.84C828.08 293.427 830.067 294.72 832.493 294.72C833.693 294.72 834.933 294.4 836.213 293.76C837.493 293.12 838.733 292.107 839.933 290.72V264.44C838.333 262.387 836.173 261.36 833.453 261.36C831.747 261.36 830.2 261.92 828.813 263.04C827.427 264.16 826.32 265.987 825.493 268.52C824.667 271.027 824.253 274.387 824.253 278.6ZM869.798 295.96C871.638 295.96 873.092 295.48 874.158 294.52C875.252 293.56 875.798 292.307 875.798 290.76C875.798 289.107 875.198 287.693 873.998 286.52C872.825 285.347 870.652 284.253 867.478 283.24C862.785 281.667 859.545 279.88 857.758 277.88C855.998 275.853 855.118 273.373 855.118 270.44C855.118 267.107 856.252 264.533 858.518 262.72C860.785 260.907 863.812 260 867.598 260C870.025 260 871.812 260.32 872.958 260.96C874.132 261.573 874.838 261.88 875.078 261.88C875.345 261.88 875.812 261.72 876.478 261.4C877.145 261.08 877.798 260.773 878.438 260.48C879.105 260.16 879.545 260 879.758 260C880.025 260 880.185 260.147 880.238 260.44L882.358 271.96C882.438 272.387 882.398 272.64 882.238 272.72C882.078 272.8 881.932 272.733 881.798 272.52C879.478 268.067 877.252 264.987 875.118 263.28C873.012 261.573 870.625 260.72 867.958 260.72C865.958 260.72 864.398 261.227 863.278 262.24C862.185 263.227 861.638 264.56 861.638 266.24C861.638 267.92 862.252 269.373 863.478 270.6C864.732 271.827 867.198 272.96 870.878 274C875.092 275.2 878.065 276.827 879.798 278.88C881.558 280.907 882.438 283.32 882.438 286.12C882.438 289.4 881.292 292 878.998 293.92C876.732 295.813 873.905 296.76 870.518 296.76C869.052 296.76 867.772 296.547 866.678 296.12C865.612 295.72 864.758 295.32 864.118 294.92C863.478 294.493 863.078 294.28 862.918 294.28C862.785 294.28 862.425 294.467 861.838 294.84C861.278 295.213 860.692 295.6 860.078 296C859.492 296.373 859.092 296.56 858.878 296.56C858.505 296.56 858.278 296.307 858.198 295.8L856.478 285.92C856.398 285.44 856.452 285.147 856.638 285.04C856.718 284.96 856.852 285.027 857.038 285.24C859.172 289.16 861.305 291.933 863.438 293.56C865.572 295.16 867.692 295.96 869.798 295.96ZM892.608 296.72C891.035 296.72 889.702 296.133 888.608 294.96C887.515 293.76 886.968 292.347 886.968 290.72C886.968 289.093 887.515 287.707 888.608 286.56C889.702 285.387 891.035 284.8 892.608 284.8C894.262 284.8 895.635 285.387 896.728 286.56C897.822 287.707 898.368 289.093 898.368 290.72C898.368 292.347 897.808 293.76 896.688 294.96C895.595 296.133 894.235 296.72 892.608 296.72Z" fill="white"/>
<rect width="162" height="56" transform="translate(639 347)" fill="#44FFA1"/>
<path d="M672.599 382V369.04H674.768V379.966H680.492V382H672.599ZM686.436 382.27C685.452 382.27 684.588 382.057 683.844 381.631C683.1 381.205 682.518 380.614 682.098 379.858C681.684 379.102 681.477 378.232 681.477 377.248C681.477 376.186 681.681 375.265 682.089 374.485C682.497 373.699 683.064 373.09 683.79 372.658C684.516 372.226 685.356 372.01 686.31 372.01C687.318 372.01 688.173 372.247 688.875 372.721C689.583 373.189 690.108 373.852 690.45 374.71C690.792 375.568 690.921 376.579 690.837 377.743H688.686V376.951C688.68 375.895 688.494 375.124 688.128 374.638C687.762 374.152 687.186 373.909 686.4 373.909C685.512 373.909 684.852 374.185 684.42 374.737C683.988 375.283 683.772 376.084 683.772 377.14C683.772 378.124 683.988 378.886 684.42 379.426C684.852 379.966 685.482 380.236 686.31 380.236C686.844 380.236 687.303 380.119 687.687 379.885C688.077 379.645 688.377 379.3 688.587 378.85L690.729 379.498C690.357 380.374 689.781 381.055 689.001 381.541C688.227 382.027 687.372 382.27 686.436 382.27ZM683.088 377.743V376.105H689.775V377.743H683.088ZM695.387 382.27C694.685 382.27 694.091 382.138 693.605 381.874C693.119 381.604 692.75 381.247 692.498 380.803C692.252 380.359 692.129 379.87 692.129 379.336C692.129 378.868 692.207 378.448 692.363 378.076C692.519 377.698 692.759 377.374 693.083 377.104C693.407 376.828 693.827 376.603 694.343 376.429C694.733 376.303 695.189 376.189 695.711 376.087C696.239 375.985 696.809 375.892 697.421 375.808C698.039 375.718 698.684 375.622 699.356 375.52L698.582 375.961C698.588 375.289 698.438 374.794 698.132 374.476C697.826 374.158 697.31 373.999 696.584 373.999C696.146 373.999 695.723 374.101 695.315 374.305C694.907 374.509 694.622 374.86 694.46 375.358L692.48 374.737C692.72 373.915 693.176 373.255 693.848 372.757C694.526 372.259 695.438 372.01 696.584 372.01C697.448 372.01 698.207 372.151 698.861 372.433C699.521 372.715 700.01 373.177 700.328 373.819C700.502 374.161 700.607 374.512 700.643 374.872C700.679 375.226 700.697 375.613 700.697 376.033V382H698.798V379.894L699.113 380.236C698.675 380.938 698.162 381.454 697.574 381.784C696.992 382.108 696.263 382.27 695.387 382.27ZM695.819 380.542C696.311 380.542 696.731 380.455 697.079 380.281C697.427 380.107 697.703 379.894 697.907 379.642C698.117 379.39 698.258 379.153 698.33 378.931C698.444 378.655 698.507 378.34 698.519 377.986C698.537 377.626 698.546 377.335 698.546 377.113L699.212 377.311C698.558 377.413 697.997 377.503 697.529 377.581C697.061 377.659 696.659 377.734 696.323 377.806C695.987 377.872 695.69 377.947 695.432 378.031C695.18 378.121 694.967 378.226 694.793 378.346C694.619 378.466 694.484 378.604 694.388 378.76C694.298 378.916 694.253 379.099 694.253 379.309C694.253 379.549 694.313 379.762 694.433 379.948C694.553 380.128 694.727 380.272 694.955 380.38C695.189 380.488 695.477 380.542 695.819 380.542ZM703.04 382V372.28H704.957V374.647L704.723 374.341C704.843 374.017 705.002 373.723 705.2 373.459C705.404 373.189 705.647 372.967 705.929 372.793C706.169 372.631 706.433 372.505 706.721 372.415C707.015 372.319 707.315 372.262 707.621 372.244C707.927 372.22 708.224 372.232 708.512 372.28V374.305C708.224 374.221 707.891 374.194 707.513 374.224C707.141 374.254 706.805 374.359 706.505 374.539C706.205 374.701 705.959 374.908 705.767 375.16C705.581 375.412 705.443 375.7 705.353 376.024C705.263 376.342 705.218 376.687 705.218 377.059V382H703.04ZM716.953 382V377.32C716.953 377.014 716.932 376.675 716.89 376.303C716.848 375.931 716.749 375.574 716.593 375.232C716.443 374.884 716.215 374.599 715.909 374.377C715.609 374.155 715.201 374.044 714.685 374.044C714.409 374.044 714.136 374.089 713.866 374.179C713.596 374.269 713.35 374.425 713.128 374.647C712.912 374.863 712.738 375.163 712.606 375.547C712.474 375.925 712.408 376.411 712.408 377.005L711.121 376.456C711.121 375.628 711.28 374.878 711.598 374.206C711.922 373.534 712.396 373 713.02 372.604C713.644 372.202 714.412 372.001 715.324 372.001C716.044 372.001 716.638 372.121 717.106 372.361C717.574 372.601 717.946 372.907 718.222 373.279C718.498 373.651 718.702 374.047 718.834 374.467C718.966 374.887 719.05 375.286 719.086 375.664C719.128 376.036 719.149 376.339 719.149 376.573V382H716.953ZM710.212 382V372.28H712.147V375.295H712.408V382H710.212ZM736.774 382V376.096C736.774 375.43 736.609 374.911 736.279 374.539C735.949 374.161 735.502 373.972 734.938 373.972C734.59 373.972 734.278 374.053 734.002 374.215C733.726 374.371 733.507 374.605 733.345 374.917C733.183 375.223 733.102 375.589 733.102 376.015L732.139 375.448C732.133 374.776 732.283 374.185 732.589 373.675C732.901 373.159 733.321 372.757 733.849 372.469C734.377 372.181 734.965 372.037 735.613 372.037C736.687 372.037 737.509 372.361 738.079 373.009C738.655 373.651 738.943 374.497 738.943 375.547V382H736.774ZM725.083 382V372.28H727V375.295H727.27V382H725.083ZM730.942 382V376.123C730.942 375.445 730.777 374.917 730.447 374.539C730.117 374.161 729.667 373.972 729.097 373.972C728.545 373.972 728.101 374.161 727.765 374.539C727.435 374.917 727.27 375.409 727.27 376.015L726.298 375.367C726.298 374.737 726.454 374.17 726.766 373.666C727.078 373.162 727.498 372.766 728.026 372.478C728.56 372.184 729.157 372.037 729.817 372.037C730.543 372.037 731.149 372.193 731.635 372.505C732.127 372.811 732.493 373.231 732.733 373.765C732.979 374.293 733.102 374.89 733.102 375.556V382H730.942ZM745.425 382.27C744.453 382.27 743.604 382.051 742.878 381.613C742.152 381.175 741.588 380.572 741.186 379.804C740.79 379.03 740.592 378.142 740.592 377.14C740.592 376.12 740.796 375.226 741.204 374.458C741.612 373.69 742.179 373.09 742.905 372.658C743.631 372.226 744.471 372.01 745.425 372.01C746.403 372.01 747.255 372.229 747.981 372.667C748.707 373.105 749.271 373.711 749.673 374.485C750.075 375.253 750.276 376.138 750.276 377.14C750.276 378.148 750.072 379.039 749.664 379.813C749.262 380.581 748.698 381.184 747.972 381.622C747.246 382.054 746.397 382.27 745.425 382.27ZM745.425 380.236C746.289 380.236 746.931 379.948 747.351 379.372C747.771 378.796 747.981 378.052 747.981 377.14C747.981 376.198 747.768 375.448 747.342 374.89C746.916 374.326 746.277 374.044 745.425 374.044C744.843 374.044 744.363 374.176 743.985 374.44C743.613 374.698 743.337 375.061 743.157 375.529C742.977 375.991 742.887 376.528 742.887 377.14C742.887 378.082 743.1 378.835 743.526 379.399C743.958 379.957 744.591 380.236 745.425 380.236ZM752.259 382V372.28H754.176V374.647L753.942 374.341C754.062 374.017 754.221 373.723 754.419 373.459C754.623 373.189 754.866 372.967 755.148 372.793C755.388 372.631 755.652 372.505 755.94 372.415C756.234 372.319 756.534 372.262 756.84 372.244C757.146 372.22 757.443 372.232 757.731 372.28V374.305C757.443 374.221 757.11 374.194 756.732 374.224C756.36 374.254 756.024 374.359 755.724 374.539C755.424 374.701 755.178 374.908 754.986 375.16C754.8 375.412 754.662 375.7 754.572 376.024C754.482 376.342 754.437 376.687 754.437 377.059V382H752.259ZM763.692 382.27C762.708 382.27 761.844 382.057 761.1 381.631C760.356 381.205 759.774 380.614 759.354 379.858C758.94 379.102 758.733 378.232 758.733 377.248C758.733 376.186 758.937 375.265 759.345 374.485C759.753 373.699 760.32 373.09 761.046 372.658C761.772 372.226 762.612 372.01 763.566 372.01C764.574 372.01 765.429 372.247 766.131 372.721C766.839 373.189 767.364 373.852 767.706 374.71C768.048 375.568 768.177 376.579 768.093 377.743H765.942V376.951C765.936 375.895 765.75 375.124 765.384 374.638C765.018 374.152 764.442 373.909 763.656 373.909C762.768 373.909 762.108 374.185 761.676 374.737C761.244 375.283 761.028 376.084 761.028 377.14C761.028 378.124 761.244 378.886 761.676 379.426C762.108 379.966 762.738 380.236 763.566 380.236C764.1 380.236 764.559 380.119 764.943 379.885C765.333 379.645 765.633 379.3 765.843 378.85L767.985 379.498C767.613 380.374 767.037 381.055 766.257 381.541C765.483 382.027 764.628 382.27 763.692 382.27ZM760.344 377.743V376.105H767.031V377.743H760.344Z" fill="#24053E"/>
<rect x="645" y="227" width="243" height="3" fill="#44FFA1"/>
<path d="M93.0305 309.766C106.873 283.731 124.72 263.015 142.363 250.56C160.031 238.087 177.356 233.983 190.267 240.848C203.178 247.713 209.464 264.371 209.003 285.994C208.543 307.585 201.349 333.965 187.506 359.999C173.663 386.033 155.816 406.749 138.174 419.204C120.505 431.678 103.181 435.781 90.2694 428.916C77.3583 422.051 71.0724 405.394 71.5334 383.771C71.9936 362.18 79.1877 335.8 93.0305 309.766Z" stroke="#44FFA1"/>
<path d="M57.0305 290.766C70.8732 264.731 88.7204 244.015 106.363 231.56C124.031 219.087 141.356 214.983 154.267 221.848C167.178 228.713 173.464 245.371 173.003 266.994C172.543 288.585 165.349 314.965 151.506 340.999C137.663 367.033 119.816 387.749 102.174 400.204C84.5051 412.678 67.1805 416.781 54.2694 409.916C41.3583 403.051 35.0724 386.394 35.5334 364.771C35.9936 343.18 43.1877 316.8 57.0305 290.766Z" stroke="#44FFA1"/>
<path opacity="0.75" d="M22.9135 272.235C36.7569 246.199 54.5062 225.43 71.9902 212.89C89.5025 200.33 106.604 196.115 119.267 202.848C131.93 209.581 137.999 226.116 137.379 247.658C136.759 269.165 129.466 295.494 115.623 321.529C101.78 347.565 84.0304 368.334 66.5464 380.874C49.0341 393.435 31.9325 397.649 19.2696 390.916C6.60664 384.183 0.537374 367.649 1.15774 346.107C1.7771 324.599 9.07019 298.271 22.9135 272.235Z" stroke="#44FFA1"/>
<path opacity="0.5" d="M-13.9695 251.766C-0.126795 225.731 17.7204 205.015 35.3627 192.56C53.0312 180.087 70.3558 175.983 83.2669 182.848C96.178 189.713 102.464 206.371 102.003 227.994C101.543 249.585 94.3486 275.965 80.5059 301.999C66.6631 328.033 48.816 348.749 31.1736 361.204C13.5051 373.678 -3.81947 377.781 -16.7306 370.916C-29.6417 364.051 -35.9276 347.394 -35.4666 325.771C-35.0064 304.18 -27.8123 277.8 -13.9695 251.766Z" stroke="#44FFA1"/>
<path opacity="0.25" d="M-50.0865 233.235C-36.2431 207.199 -18.4938 186.43 -1.0098 173.89C16.5025 161.33 33.6041 157.115 46.267 163.848C58.9299 170.581 64.9992 187.116 64.3788 208.658C63.7595 230.165 56.4664 256.494 42.623 282.529C28.7797 308.565 11.0304 329.334 -6.45362 341.874C-23.9659 354.435 -41.0675 358.649 -53.7304 351.916C-66.3934 345.183 -72.4626 328.649 -71.8423 307.107C-71.2229 285.599 -63.9298 259.271 -50.0865 233.235Z" stroke="#44FFA1"/>
<path d="M1390.98 445.127C1403.75 453.741 1413.54 464.114 1419.06 473.901C1424.6 483.716 1425.77 492.793 1421.61 498.961C1417.45 505.13 1408.6 507.446 1397.42 505.987C1386.28 504.533 1372.99 499.338 1360.22 490.725C1347.45 482.111 1337.66 471.738 1332.13 461.952C1326.6 452.136 1325.43 443.059 1329.59 436.891C1333.75 430.722 1342.6 428.406 1353.78 429.865C1364.92 431.319 1378.21 436.514 1390.98 445.127Z" stroke="#44FFA1"/>
<path d="M1402.98 427.127C1415.75 435.741 1425.54 446.114 1431.06 455.901C1436.6 465.716 1437.77 474.793 1433.61 480.961C1429.45 487.13 1420.6 489.446 1409.42 487.987C1398.28 486.533 1384.99 481.338 1372.22 472.725C1359.45 464.111 1349.66 453.738 1344.13 443.952C1338.6 434.136 1337.43 425.059 1341.59 418.891C1345.75 412.722 1354.6 410.406 1365.78 411.865C1376.92 413.319 1390.21 418.514 1402.98 427.127Z" stroke="#44FFA1"/>
<path opacity="0.75" d="M1413.98 410.127C1426.75 418.741 1436.54 429.114 1442.06 438.901C1447.6 448.716 1448.77 457.793 1444.61 463.961C1440.45 470.13 1431.6 472.446 1420.42 470.987C1409.28 469.533 1395.99 464.338 1383.22 455.725C1370.45 447.111 1360.66 436.738 1355.13 426.952C1349.6 417.136 1348.43 408.059 1352.59 401.891C1356.75 395.722 1365.6 393.406 1376.78 394.865C1387.92 396.319 1401.21 401.514 1413.98 410.127Z" stroke="#44FFA1"/>
<path opacity="0.5" d="M1425.98 392.127C1438.75 400.741 1448.54 411.114 1454.06 420.901C1459.6 430.716 1460.77 439.793 1456.61 445.961C1452.45 452.13 1443.6 454.446 1432.42 452.987C1421.28 451.533 1407.99 446.338 1395.22 437.725C1382.45 429.111 1372.66 418.738 1367.13 408.952C1361.6 399.136 1360.43 390.059 1364.59 383.891C1368.75 377.722 1377.6 375.406 1388.78 376.865C1399.92 378.319 1413.21 383.514 1425.98 392.127Z" stroke="#44FFA1"/>
<path opacity="0.25" d="M1438.98 374.127C1451.75 382.741 1461.54 393.114 1467.06 402.901C1472.6 412.716 1473.77 421.793 1469.61 427.961C1465.45 434.13 1456.6 436.446 1445.42 434.987C1434.28 433.533 1420.99 428.338 1408.22 419.725C1395.45 411.111 1385.66 400.738 1380.13 390.952C1374.6 381.136 1373.43 372.059 1377.59 365.891C1381.75 359.722 1390.6 357.406 1401.78 358.865C1412.92 360.319 1426.21 365.514 1438.98 374.127Z" stroke="#44FFA1"/>
<path d="M0 699V771H1440V699C1440 699 1082.96 767 722 767C361.039 767 0 699 0 699Z" fill="#FCF8FF"/>
</svg>
